===================================================================================

                         	HD DESI ROCKERS RELEASES 

===================================================================================

Complete name                    : The.Scorpion.King.2002.720p.BluRay.Dual.Audio.Hindi-Eng_DjVikas.mkv
Format                           : Matroska
File size                        : 1.90 GiB
Duration                         : 1h 27mn
Overall bit rate                 : 3 106 Kbps
Movie name                       : The.Scorpion.King.2002.720p.BluRay.Dual.Audio.Hindi-Eng_DjVikas
_________________________________________________________________________________________________________________

Video
ID                               : 1
Format                           : AVC
Format/Info                      : Advanced Video Codec
Format profile                   : High@L4.1
Format settings, CABAC           : Yes
Duration                         : 1h 27mn
Bit rate                         : 2 300 Kbps
Width                            : 1 280 pixels
Height                           : 544 pixels
Display aspect ratio             : 2.35:1
Frame rate                       : 25.000 fps
Original frame rate              : 23.976 fps
Stream size                      : 1.43 GiB (75%)
Language                         : English
________________________________________________________________________________________________________________
Audio #1
ID                               : 2
Format                           : AC-3
Format/Info                      : Audio Coding 3
Mode extension                   : CM (complete main)
Codec ID                         : A_AC3
Duration                         : 1h 27mn
Bit rate mode                    : Constant
Bit rate                         : 448 Kbps
Channel(s)                       : 2 channels
Channel positions                : Front: L R
Sampling rate                    : 48.0 KHz
Stream size                      : 281 MiB (14%)
Title                            : ENGLISH - DJ_VIKAS
________________________________________________________________________________________________________________
Audio #2
ID                               : 3
Format                           : AC-3
Format/Info                      : Audio Coding 3
Mode extension                   : CM (complete main)
Codec ID                         : A_AC3
Duration                         : 1h 27mn
Bit rate mode                    : Constant
Bit rate                         : 256 Kbps
Channel(s)                       : 2 channels
Channel positions                : Front: L R
Sampling rate                    : 48.0 KHz
Stream size                      : 160 MiB (8%)
Title                            : HINDI - DJ_VIKAS
_______________________________________________________________________________________________________________

SCREENSHOTS : 
 
http://img23.imageshack.us/img23/8637/thescorpionking2002720p.jpg 
http://img231.imageshack.us/img231/8637/thescorpionking2002720p.jpg 
http://img215.imageshack.us/img215/8637/thescorpionking2002720p.jpg 
http://img10.imageshack.us/img10/8637/thescorpionking2002720p.jpg 
http://img444.imageshack.us/img444/8637/thescorpionking2002720p.jpg 
http://img684.imageshack.us/img684/8637/thescorpionking2002720p.jpg 
http://img689.imageshack.us/img689/8637/thescorpionking2002720p.jpg 
http://img130.imageshack.us/img130/8637/thescorpionking2002720p.jpg 
http://img338.imageshack.us/img338/8637/thescorpionking2002720p.jpg

______________________________________________________________________________________________________________